<?xml version="1.0" encoding="UTF-8" standalone="no"?>
<!-- Created with Inkscape (http://www.inkscape.org/) -->

<svg
   xmlns:dc="http://purl.org/dc/elements/1.1/"
   xmlns:cc="http://creativecommons.org/ns#"
   xmlns:rdf="http://www.w3.org/1999/02/22-rdf-syntax-ns#"
   xmlns:svg="http://www.w3.org/2000/svg"
   xmlns="http://www.w3.org/2000/svg"
   version="1.1"
   width="900"
   height="675"
   id="svg2">
  <defs
     id="defs4" />
  <metadata
     id="metadata7">
    <rdf:RDF>
      <cc:Work
         rdf:about="">
        <dc:format>image/svg+xml</dc:format>
        <dc:type
           rdf:resource="http://purl.org/dc/dcmitype/StillImage" />
        <dc:title></dc:title>
      </cc:Work>
    </rdf:RDF>
  </metadata>
  <g
     transform="translate(0,-377.36218)"
     id="layer2"
     style="display:inline">
    <path
       d="m 744.14894,415.92599 -591.48937,0 -59.57446,18.08511 -37.23405,28.7234 -17.02127,56.38298 -38.29788,413.82979 14.89362,40.4256 31.9149,24.468 26.59574,11.70223 243.61702,4.2553 55.31915,-29.78723 27.65957,-54.2554 -13.82978,-174.4681 13.82978,-3.1914 246.80852,247.8723 28.7234,12.76603 139.3617,-4.2554 39.3617,-9.57443 27.65958,-30.8511 17.02128,-61.7021 -47.87235,-410.63834 -20.21276,-43.61702 -34.04255,-21.2766 -32.97873,-10.6383 z"
       id="path3785"
       style="fill:none;stroke:#000000;stroke-width:1.06382978px;stroke-linecap:butt;stroke-linejoin:miter;stroke-opacity:1" />
    <path
       d="m 639.5,606.83025 -436,-1 -10,12 -22,234.00002 9,26 11,-1 11,-10 16,-191.00002 46,-41 32,-11 109,3 25,15 238,236.00002 7,-9 -26,-253.00002 z"
       id="path3789"
       style="fill:none;stroke:#000000;stroke-width:1px;stroke-linecap:butt;stroke-linejoin:miter;stroke-opacity:1" />
  </g>
</svg>
